{
	"asset":{
		"generator":"Khronos glTF Blender I/O v3.5.30",
		"version":"2.0"
	},
	"scene":0,
	"scenes":[
		{
			"name":"Scene",
			"nodes":[
				0,
				1,
				2
			]
		}
	],
	"nodes":[
		{
			"mesh":0,
			"name":"geometry-col"
		},
		{
			"mesh":1,
			"name":"table-col",
			"translation":[
				14.838150024414062,
				-0.31407320499420166,
				-3.7954492568969727
			]
		},
		{
			"mesh":2,
			"name":"Cube"
		}
	],
	"materials":[
		{
			"name":"concrete",
			"normalTexture":{
				"index":0
			},
			"pbrMetallicRoughness":{
				"baseColorTexture":{
					"index":1
				},
				"metallicFactor":0,
				"metallicRoughnessTexture":{
					"index":2
				}
			}
		},
		{
			"doubleSided":true,
			"name":"wood",
			"normalTexture":{
				"index":3
			},
			"pbrMetallicRoughness":{
				"baseColorTexture":{
					"index":4
				},
				"metallicFactor":0,
				"metallicRoughnessTexture":{
					"index":5
				}
			}
		}
	],
	"meshes":[
		{
			"name":"Cube",
			"primitives":[
				{
					"attributes":{
						"POSITION":0,
						"TEXCOORD_0":1,
						"NORMAL":2
					},
					"indices":3,
					"material":0
				}
			]
		},
		{
			"name":"Cube.004",
			"primitives":[
				{
					"attributes":{
						"POSITION":4,
						"TEXCOORD_0":5,
						"NORMAL":6
					},
					"indices":7,
					"material":1
				}
			]
		},
		{
			"name":"Cube.007",
			"primitives":[
				{
					"attributes":{
						"POSITION":8,
						"TEXCOORD_0":9,
						"NORMAL":10
					},
					"indices":11
				}
			]
		}
	],
	"textures":[
		{
			"sampler":0,
			"source":0
		},
		{
			"sampler":0,
			"source":1
		},
		{
			"sampler":0,
			"source":2
		},
		{
			"sampler":0,
			"source":3
		},
		{
			"sampler":0,
			"source":4
		},
		{
			"sampler":0,
			"source":5
		}
	],
	"images":[
		{
			"mimeType":"image/jpeg",
			"name":"Concrete034_2K_NormalGL",
			"uri":"Concrete034_2K_NormalGL.jpg"
		},
		{
			"mimeType":"image/jpeg",
			"name":"Concrete034_2K_Color",
			"uri":"Concrete034_2K_Color.jpg"
		},
		{
			"mimeType":"image/png",
			"name":"Concrete034_2K_Roughness",
			"uri":"Concrete034_2K_Roughness.png"
		},
		{
			"mimeType":"image/jpeg",
			"name":"Wood066_2K_NormalGL",
			"uri":"Wood066_2K_NormalGL.jpg"
		},
		{
			"mimeType":"image/jpeg",
			"name":"Wood066_2K_Color",
			"uri":"Wood066_2K_Color.jpg"
		},
		{
			"mimeType":"image/png",
			"name":"Wood066_2K_Roughness",
			"uri":"Wood066_2K_Roughness.png"
		}
	],
	"accessors":[
		{
			"bufferView":0,
			"componentType":5126,
			"count":70,
			"max":[
				18.409040451049805,
				2.8764426708221436,
				4.448264122009277
			],
			"min":[
				-1.4827547073364258,
				-1.4827547073364258,
				-4.448264122009277
			],
			"type":"VEC3"
		},
		{
			"bufferView":1,
			"componentType":5126,
			"count":70,
			"type":"VEC2"
		},
		{
			"bufferView":2,
			"componentType":5126,
			"count":70,
			"type":"VEC3"
		},
		{
			"bufferView":3,
			"componentType":5123,
			"count":156,
			"type":"SCALAR"
		},
		{
			"bufferView":4,
			"componentType":5126,
			"count":120,
			"max":[
				1.1395959854125977,
				0.014658601954579353,
				0.4821411371231079
			],
			"min":[
				-1.1395959854125977,
				-1.2119693756103516,
				-0.4821411371231079
			],
			"type":"VEC3"
		},
		{
			"bufferView":5,
			"componentType":5126,
			"count":120,
			"type":"VEC2"
		},
		{
			"bufferView":6,
			"componentType":5126,
			"count":120,
			"type":"VEC3"
		},
		{
			"bufferView":7,
			"componentType":5123,
			"count":180,
			"type":"SCALAR"
		},
		{
			"bufferView":8,
			"componentType":5126,
			"count":24,
			"max":[
				19.730749130249023,
				19.730749130249023,
				19.730749130249023
			],
			"min":[
				-19.730749130249023,
				-19.730749130249023,
				-19.730749130249023
			],
			"type":"VEC3"
		},
		{
			"bufferView":9,
			"componentType":5126,
			"count":24,
			"type":"VEC2"
		},
		{
			"bufferView":10,
			"componentType":5126,
			"count":24,
			"type":"VEC3"
		},
		{
			"bufferView":11,
			"componentType":5123,
			"count":36,
			"type":"SCALAR"
		}
	],
	"bufferViews":[
		{
			"buffer":0,
			"byteLength":840,
			"byteOffset":0,
			"target":34962
		},
		{
			"buffer":0,
			"byteLength":560,
			"byteOffset":840,
			"target":34962
		},
		{
			"buffer":0,
			"byteLength":840,
			"byteOffset":1400,
			"target":34962
		},
		{
			"buffer":0,
			"byteLength":312,
			"byteOffset":2240,
			"target":34963
		},
		{
			"buffer":0,
			"byteLength":1440,
			"byteOffset":2552,
			"target":34962
		},
		{
			"buffer":0,
			"byteLength":960,
			"byteOffset":3992,
			"target":34962
		},
		{
			"buffer":0,
			"byteLength":1440,
			"byteOffset":4952,
			"target":34962
		},
		{
			"buffer":0,
			"byteLength":360,
			"byteOffset":6392,
			"target":34963
		},
		{
			"buffer":0,
			"byteLength":288,
			"byteOffset":6752,
			"target":34962
		},
		{
			"buffer":0,
			"byteLength":192,
			"byteOffset":7040,
			"target":34962
		},
		{
			"buffer":0,
			"byteLength":288,
			"byteOffset":7232,
			"target":34962
		},
		{
			"buffer":0,
			"byteLength":72,
			"byteOffset":7520,
			"target":34963
		}
	],
	"samplers":[
		{
			"magFilter":9729,
			"minFilter":9987
		}
	],
	"buffers":[
		{
			"byteLength":7592,
			"uri":"level1.bin"
		}
	]
}
